<?xml version="1.0" standalone="no"?>
<!DOCTYPE svg PUBLIC "-//W3C//DTD SVG 20010904//EN"
 "http://www.w3.org/TR/2001/REC-SVG-20010904/DTD/svg10.dtd">
<svg version="1.0" xmlns="http://www.w3.org/2000/svg"
 width="1181.000000pt" height="1181.000000pt" viewBox="0 0 1181.000000 1181.000000"
 preserveAspectRatio="xMidYMid meet">
<metadata>
Created by potrace 1.11, written by Peter Selinger 2001-2013
</metadata>
<g transform="translate(0.000000,1181.000000) scale(0.100000,-0.100000)"
fill="#000000" stroke="none">
<path d="M5738 11465 c-2 -1 -67 -5 -145 -8 -600 -26 -1309 -191 -1883 -439
-114 -50 -423 -202 -510 -252 -25 -14 -52 -29 -60 -33 -93 -44 -427 -267 -605
-404 -145 -110 -164 -126 -299 -244 -842 -731 -1459 -1743 -1726 -2829 -27
-110 -52 -214 -55 -231 -57 -324 -68 -397 -80 -540 -3 -44 -8 -86 -10 -93 -8
-23 -19 -325 -19 -487 0 -147 10 -407 19 -480 1 -16 6 -59 10 -95 71 -684 268
-1347 583 -1960 36 -69 80 -151 98 -183 19 -32 34 -62 34 -68 0 -5 5 -9 10 -9
6 0 10 -5 10 -10 0 -11 186 -310 199 -320 3 -3 19 -25 35 -50 72 -111 327
-430 461 -575 120 -130 295 -302 419 -410 38 -33 74 -65 80 -70 22 -21 213
-173 291 -232 65 -49 320 -221 400 -270 83 -51 171 -100 176 -99 4 0 15 -6 25
-15 11 -9 84 -50 164 -91 697 -355 1406 -550 2200 -604 130 -9 575 -9 690 0
129 10 287 25 365 36 39 5 90 12 115 15 103 14 325 58 475 95 493 120 910 282
1384 537 227 122 590 366 800 539 213 174 390 340 597 559 26 28 93 104 149
170 561 661 949 1418 1159 2262 38 151 99 473 112 588 4 39 8 72 9 75 1 3 5
41 9 85 5 44 10 91 12 105 23 188 23 744 -1 970 -3 25 -7 68 -10 95 -78 745
-305 1462 -675 2125 -93 167 -120 210 -243 395 -94 141 -320 440 -367 485 -3
3 -34 39 -70 80 -136 157 -328 348 -501 501 -125 110 -160 139 -301 247 -872
666 -1909 1053 -3022 1128 -93 6 -503 13 -508 9z m467 -2644 c61 -7 117 -14
125 -16 8 -2 35 -7 60 -10 144 -20 408 -93 585 -162 87 -34 313 -143 385 -185
428 -252 779 -594 1033 -1005 444 -720 553 -1615 295 -2423 -267 -837 -904
-1516 -1720 -1835 -214 -83 -470 -150 -668 -174 -179 -22 -231 -25 -425 -24
-1020 4 -1954 538 -2486 1421 -435 723 -535 1626 -267 2426 315 944 1081 1659
2046 1911 138 36 362 73 488 81 60 4 110 8 112 9 8 7 337 -4 437 -14z"/>
</g>
</svg>
